::::::::::::::Enjoy:Another:Release:From:T0XiC::::::::::::::



File:: Warrior's.Way.2010.TS.XViD-T0XiC-iNK

Video Source:: ....russian CAM

Audio Source:: ....thnx matey

Language::English

IMDB: http://www.imdb.com/title/tt1032751/



A warrior-assassin is forced to hide in a small town in the American Badlands after refusing a mission.



Specs::



General



Format : AVI

Format/Info : Audio Video Interleave

File size : 704 MiB

Duration : 1h 27mn

Overall bit rate : 1 119 Kbps

Writing application : VirtualDubMod 1.5.10.2 (build 2540/release)

Writing library : VirtualDubMod build 2540/release



Video

ID : 0

Format : MPEG-4 Visual

Format profile : Advanced Simple@L5

Format settings, BVOP : Yes

Format settings, QPel : No

Format settings, GMC : No warppoints

Format settings, Matrix : Custom

Codec ID : XVID

Codec ID/Hint : XviD

Duration : 1h 27mn

Bit rate : 981 Kbps

Width : 640 pixels

Height : 288 pixels

Display aspect ratio : 2.222

Frame rate : 25.000 fps

Color space : YUV

Chroma subsampling : 4:2:0

Bit depth : 8 bits

Scan type : Progressive

Bits/(Pixel*Frame) : 0.213

Stream size : 617 MiB (88%)

Writing library : XviD 1.2.1 (UTC 2008-12-04)



Audio

ID : 1

Format : MPEG Audio

Format version : Version 1

Format profile : Layer 3

Codec ID : 55

Codec ID/Hint : MP3

Duration : 1h 27mn

Bit rate mode : Constant

Bit rate : 128 Kbps

Channel(s) : 2 channels

Sampling rate : 44.1 KHz

Stream size : 80.5 MiB (11%)

Alignment : Split accross interleaves

Interleave, duration : 40 ms (1.00 video frame)

Interleave, preload duration : 500 ms







NOTES:: Did the best we could with the russian CAM. There's nothing on the horizon with a r5 for this movie



and there's no point in wasting this great LiNE to a dvdrip that might pop up, so here's what you get for



what we can work with.





::Why Complain? Whats Free Is Free::





::We are looking for unreleased DVD's, Screeners, New Music Releases, R5's, Audio, Cams, Silvers,

And Any Other Good Sources You Have To Offer contact us: t0xicreleases@hushmail.com



::::::::::::::Hats Off To::::::::::::::

::IMAGiNE,FLAWL3SS,MTV,iNK,bob,Tranz,Vik,OneTwo,everyone on utn and PA::

"And to all of you who support us, Thank you"